<svg width="20" height="20" viewBox="0 0 20 20" fill="none" xmlns="http://www.w3.org/2000/svg">
<path d="M2.29167 5.13917C2.29167 4.75584 2.57917 4.44417 2.93417 4.44417H5.155C5.59583 4.43167 5.985 4.12917 6.135 3.68084L6.16 3.60167L6.25583 3.29167C6.31417 3.10167 6.365 2.93584 6.43667 2.78751C6.71833 2.20251 7.24 1.79667 7.8425 1.69251C7.99583 1.66667 8.15667 1.66667 8.3425 1.66667H11.2408C11.4267 1.66667 11.5883 1.66667 11.7408 1.69251C12.3433 1.79667 12.8658 2.20251 13.1467 2.78751C13.2183 2.93584 13.2692 3.10167 13.3275 3.29167L13.4233 3.60167L13.4483 3.68084C13.5983 4.12917 14.065 4.43251 14.5067 4.44417H16.6483C17.0042 4.44417 17.2917 4.755 17.2917 5.13917C17.2917 5.52334 17.0042 5.83334 16.6492 5.83334H2.93333C2.57833 5.83334 2.29167 5.5225 2.29167 5.13917ZM9.6725 18.3333H10.3283C12.5842 18.3333 13.7117 18.3333 14.4458 17.6142C15.1792 16.8942 15.2542 15.7142 15.4042 13.355L15.6208 9.95417C15.7025 8.67334 15.7433 8.03334 15.375 7.6275C15.0067 7.22167 14.3858 7.22167 13.1425 7.22167H6.85833C5.61583 7.22167 4.99417 7.22167 4.62583 7.6275C4.2575 8.03334 4.29917 8.67334 4.38 9.95417L4.59667 13.3542C4.74667 15.715 4.82167 16.8942 5.555 17.6142C6.28833 18.3342 7.41667 18.3333 9.6725 18.3333Z" fill="#555555"/>
</svg>
